<svg xmlns="http://www.w3.org/2000/svg" width="19" height="21"><path fill="#9b9ea3" d="M0 9.8C0 4.387 4.253 0 9.5 0S19 4.387 19 9.8a9.897 9.897 0 01-2.956 7.077L17.643 21 8.69 19.516C3.829 19.086 0 14.926 0 9.8zm2.533.026c0 3.75 2.74 6.821 6.375 7.143l.204.027 4.771 1.399-.952-2.011 1.364-1.349a7.272 7.272 0 002.172-5.21c0-3.98-3.126-7.22-6.967-7.22-3.841 0-6.967 3.24-6.967 7.22z"/><path fill="#575c67" d="M7.281 6.125H9.97c.69 0 1.25.56 1.25 1.25V7.5c0 .69-.56 1.25-1.25 1.25H7.28c-.69 0-1.25-.56-1.25-1.25v-.125c0-.69.56-1.25 1.25-1.25zm0 4.375h4.438c.69 0 1.25.56 1.25 1.25v.125c0 .69-.56 1.25-1.25 1.25H7.28c-.69 0-1.25-.56-1.25-1.25v-.125c0-.69.56-1.25 1.25-1.25z"/></svg>