<svg xmlns="http://www.w3.org/2000/svg" width="18" height="17"><path fill="#b3b6b9" d="M2.25 3.411v10.192c0 .625.504 1.132 1.125 1.132h11.25c.621 0 1.125-.507 1.125-1.132v-3.397H18v4.53A2.257 2.257 0 0115.75 17H2.25A2.257 2.257 0 010 14.735V2.28A2.257 2.257 0 012.25.014h5.625V2.28h-4.5c-.621 0-1.125.507-1.125 1.132z"/><path fill="#575c67" d="M17.677 5.288l-3.384 3.44a1.103 1.103 0 01-1.578 0 1.148 1.148 0 010-1.605l1.402-1.425c-1.151-.051-5.728.09-7.43 4.914a1.127 1.127 0 01-1.437.688 1.135 1.135 0 01-.684-1.447c1.916-5.426 6.9-6.65 9.67-6.43L12.723 1.93a1.147 1.147 0 010-1.605 1.103 1.103 0 011.578 0l3.375 3.36c.21.212.327.5.327.802 0 .301-.117.59-.327.802z"/></svg>