<svg xmlns="http://www.w3.org/2000/svg" width="22" height="17" viewBox="0 0 22 17"><g><g><path fill="#575c67" d="M20.625 15.583c-.477 0-2.656-1.197-4.125-2.036v.62C16.5 15.73 15.269 17 13.75 17H4.125c-1.519 0-2.75-1.269-2.75-2.833v-3.25C.615 10.916 0 10.281 0 9.5V5.667C0 4.884.616 4.25 1.375 4.25V2.833C1.375 1.268 2.606 0 4.125 0h9.625c1.519 0 2.75 1.268 2.75 2.833v.614c1.46-.838 3.622-2.03 4.125-2.03.773 0 1.375.634 1.375 1.416v11.334c0 .782-.645 1.416-1.375 1.416zM13.75 4.25c0-.782-.615-1.417-1.375-1.417H5.5c-.76 0-1.375.635-1.375 1.417V5H4a2 2 0 0 0-2 2v1a2 2 0 0 0 2 2h.125v2.75c0 .782.615 1.417 1.375 1.417h6.875c.76 0 1.375-.635 1.375-1.417zm5.5 1.308L16.5 6.662v3.585l2.75 1.107z"/></g><g><path fill="#d8232a" d="M5.5 6a1.5 1.5 0 1 1 0 3 1.5 1.5 0 0 1 0-3z"/></g></g></svg>