<svg xmlns="http://www.w3.org/2000/svg" width="22" height="22" viewBox="0 0 22 22"><g><g><path fill="#9da0a5" d="M5 6.719h3.781v-4.5a1 1 0 0 1 1-1h3.438v-.22a1 1 0 0 1 1-.999h.187a1 1 0 0 1 1 1v1.406a1 1 0 0 1-1 1H11V6.72h6a5 5 0 0 1 5 5V17a5 5 0 0 1-5 5H5a5 5 0 0 1-5-5v-5.281a5 5 0 0 1 5-5zm-2.781 5.687v3.875a3.5 3.5 0 0 0 3.5 3.5H16.28a3.5 3.5 0 0 0 3.5-3.5v-3.875a3.5 3.5 0 0 0-3.5-3.5H5.72a3.5 3.5 0 0 0-3.5 3.5z"/></g><g><path fill="#575c67" d="M7.49 12h.02c.46 0 .834.373.834.833v.823h.823c.46 0 .833.373.833.834v.02c0 .46-.373.834-.833.834h-.823v.823c0 .46-.373.833-.834.833h-.02a.833.833 0 0 1-.834-.833v-.823h-.823A.833.833 0 0 1 5 14.51v-.02c0-.46.373-.834.833-.834h.823v-.823c0-.46.373-.833.833-.833z"/></g><g><path fill="#575c67" d="M14.5 13a1.5 1.5 0 1 1 0 3 1.5 1.5 0 0 1 0-3z"/></g></g></svg>