<svg xmlns="http://www.w3.org/2000/svg" width="15" height="13" viewBox="0 0 15 13"><g><g><path fill="#d8232a" d="M13.677 7.197L7.493 13 1.31 7.197c-1.756-1.646-1.756-4.316 0-5.962C3.011-.361 5.728-.395 7.493 1.1c1.765-1.497 4.482-1.462 6.184.134 1.756 1.646 1.756 4.316 0 5.962zm-1.388-4.639a2.539 2.539 0 0 0-1.746-.679c-.623 0-1.22.217-1.685.61l-1.34 1.253L6.18 2.49a2.608 2.608 0 0 0-1.685-.61c-.659 0-1.279.242-1.746.68a2.256 2.256 0 0 0-.731 1.655c0 .626.26 1.214.724 1.65l4.778 4.437 4.77-4.43c.472-.443.732-1.03.732-1.657 0-.626-.26-1.213-.732-1.656z"/></g></g></svg>