<svg xmlns="http://www.w3.org/2000/svg" width="14" height="14" viewBox="0 0 14 14"><g><g><path fill="#d8232a" d="M5.25 13.125c-.31 0-.608-.04-.903-.091L0 14l.829-3.315A5.212 5.212 0 0 1 0 7.875a5.252 5.252 0 0 1 4.167-5.138C5.06 1.113 6.767 0 8.75 0 11.65 0 14 2.35 14 5.25c0 1.036-.31 1.996-.829 2.81L14 11.375l-4.173-.927a5.248 5.248 0 0 1-4.577 2.677zm5.25-5.25c0 .314-.028.621-.08.92l1.195.266-.324-1.297.404-.635a3.48 3.48 0 0 0 .555-1.87c0-1.93-1.57-3.5-3.5-3.5-.938 0-1.787.375-2.416.978 2.38.5 4.166 2.61 4.166 5.138zm-8.115 3.81l1.92-.426.342.06c.257.045.443.064.603.064 1.93 0 3.5-1.57 3.5-3.5s-1.57-3.5-3.5-3.5-3.5 1.57-3.5 3.5c0 .654.192 1.301.555 1.871l.404.635z"/></g></g></svg>