<svg xmlns="http://www.w3.org/2000/svg" width="14" height="14" viewBox="0 0 14 14"><g><g><path fill="#d8232a" d="M12.25 14H1.75C.783 14 0 13.164 0 12.133v-2.8C0 8.818.392 8.4.875 8.4s.875.418.875.933V11.2c0 .515.392.933.875.933h8.75c.483 0 .875-.418.875-.933V9.333c0-.515.392-.933.875-.933s.875.418.875.933v2.8C14 13.164 13.216 14 12.25 14zM6.125.933C6.125.418 6.517 0 7 0s.875.418.875.933v6.108l1.118-1.186a.84.84 0 0 1 1.24 0 .976.976 0 0 1 0 1.32L7.754 9.806a.869.869 0 0 1-.714.459.85.85 0 0 1-.705-.269L3.74 7.182a.976.976 0 0 1 0-1.32.84.84 0 0 1 1.24 0l1.145 1.25z"/></g></g></svg>