<svg xmlns="http://www.w3.org/2000/svg" width="14" height="14" viewBox="0 0 14 14"><g><g><path fill="#d8232a" d="M7.102.004s.788-.063 1.51 1.325L9.79 3.59l2.814.573c1.34.272 1.414 1.066 1.414 1.066s.166.688-.84 1.826c-.89 1.005-1.726 1.952-1.726 1.952l.376 3.187c.162 1.37-.322 1.68-.322 1.68s-.765.288-2.09-.37l-2.314-1.15-2.8 1.392c-1.16.576-1.82.028-1.82.028s-.281-.093-.128-1.391l.398-3.376-1.725-1.952C.02 5.918 0 5.131 0 5.131S.15 4.46 1.426 4.2l2.988-.608L5.549 1.41C6.283 0 7.102.004 7.102.004"/></g></g></svg>