<svg xmlns="http://www.w3.org/2000/svg" width="14" height="14" viewBox="0 0 14 14"><g><g><path fill="#fff" d="M8.566 1.329L9.744 3.59l2.814.573c1.34.272 1.414 1.066 1.414 1.066s.166.688-.84 1.826l-1.727 1.952.377 3.187c.161 1.37-.322 1.679-.322 1.679s-.765.29-2.09-.369l-2.314-1.15-2.8 1.392c-1.16.576-1.821.028-1.821.028s-.28-.093-.127-1.391l.398-3.376L.981 7.056C-.026 5.918-.046 5.131-.046 5.131S.104 4.46 1.38 4.2l2.988-.608L5.503 1.41C6.237 0 7.056.004 7.056.004s.788-.063 1.51 1.325zM2.797 5.485c-.58.119-.58.402-.58.402s-.05.263.43.806l1.592 1.8-.252 2.137c-.103.866.06 1.075.06 1.075s.255.338.873.03l2.146-1.066 2.158 1.072c.614.305.933.194.933.194s.13-.106.058-.713l-.322-2.729 1.723-1.948c.42-.475.37-.69.37-.69s-.028-.243-.57-.353l-2.603-.53-1.22-2.345c-.295-.566-.537-.618-.537-.618s-.223.054-.519.622L5.32 4.972l-2.522.514z"/></g></g></svg>